<svg width="145" height="44" viewBox="0 0 145 44" xmlns="http://www.w3.org/2000/svg">
  <!-- Background Shape -->
  <path x="0" y="0" width="145" height="44" fill="#2b0a2b" d="M22,0 h101 a22,22 0 0 1 22,22 v0 a22,22 0 0 1 -22,22 h-101 a22,22 0 0 1 -22,-22 v0 a22,22 0 0 1 22,-22"/>
  
  <defs>
    <!-- LinkedIn Color Gradient -->
    <linearGradient id="smb-grad-LinkedIn" gradientUnits="objectBoundingBox" x1="0" y1="0" x2="1" y2="1">
      <stop offset="0%" stop-color="#ffffff"></stop>
      <stop offset="10%" stop-color="#0077b5"></stop>
      <stop offset="50%" stop-color="#00a0dc"></stop>
      <stop offset="60%" stop-color="#0077b5"></stop>
      <stop offset="80%" stop-color="#111111"></stop>
      <stop offset="100%" stop-color="#555555"></stop>
      <!-- Animation Preserved -->
      <animateTransform attributeName="gradientTransform" type="rotate" from="0 0.5 0.5" to="360 0.5 0.5" dur="8s" repeatCount="indefinite"></animateTransform>
    </linearGradient>
  </defs>

  <!-- Animated Border -->
  <rect x="1.25" y="1.25" width="142.5" height="41.5" rx="20.75" ry="20.75" fill="none" stroke="url(#smb-grad-LinkedIn)" stroke-width="2" stroke-linecap="round" stroke-linejoin="round"></rect>
  
  <!-- Outer Stroke -->
  <rect x="0.25" y="0.25" width="144.5" height="43.5" rx="21.75" ry="21.75" fill="none" stroke="#AAAAAA" stroke-width="0.5" stroke-linecap="round" stroke-linejoin="round"></rect>
  
  <!-- LinkedIn Icon -->
  <svg x="28" y="14" width="16" height="16" viewBox="0 0 24 24" fill="#f5f5f5">
    <path d="M20.447 20.452h-3.554v-5.569c0-1.328-.027-3.037-1.852-3.037-1.853 0-2.136 1.445-2.136 2.939v5.667H9.351V9h3.414v1.561h.046c.477-.9 1.637-1.85 3.37-1.85 3.601 0 4.267 2.37 4.267 5.455v6.286zM5.337 7.433c-1.144 0-2.063-.926-2.063-2.065 0-1.138.92-2.063 2.063-2.063 1.14 0 2.064.925 2.064 2.063 0 1.139-.925 2.065-2.064 2.065zm1.782 13.019H3.555V9h3.564v11.452zM22.225 0H1.771C.792 0 0 .774 0 1.729v20.542C0 23.227.792 24 1.771 24h20.451C23.2 24 24 23.227 24 22.271V1.729C24 .774 23.2 0 22.222 0h.003z"/>
  </svg>
  
  <!-- LinkedIn Text -->
  <text x="51" y="26.5" font-family="-apple-system, BlinkMacSystemFont, 'Segoe UI', Roboto, Helvetica, Arial, sans-serif" font-size="14" font-weight="600" fill="#f5f5f5">LinkedIn</text>
</svg>
